<svg xmlns="http://www.w3.org/2000/svg" width="202.01772" height="49.36047" viewBox="0 0 202.01772 49.36047"><defs><style>.cls-1{fill:#67896f;}.cls-2{fill:#fff;}</style></defs><title>アセット 1</title><g id="レイヤー_2" data-name="レイヤー 2"><g id="レイヤー_1-2" data-name="レイヤー 1"><path class="cls-1" d="M118.66643,9.676c12.965,5.29185,17.23315.82608,30.87-5.40785,19.36693-8.85379,37.79281-3.14772,47.93829,9.89637C188.616,6.929,178.069,4.38414,172.37871,4.38414c-18.25688,0-26.77552,11.886-37.47448,13.04875C128.27547,18.15329,121.48753,13.28934,118.66643,9.676Z"/><path class="cls-1" d="M50.14535,19.79665,52.3502,31.68059c.49431,2.956,1.04728,6.14892,1.48706,9.46048h.16587c.49611-3.25134,1.32349-6.56264,1.92914-9.4L58.7981,19.79665h6.613l2.7012,11.52941c.77182,3.31053,1.48833,6.50345,1.98444,9.815h.109c.38657-3.25134.93668-6.56264,1.59946-9.87417l2.25806-11.47024H82.276l-8.267,28.91345H66.18291L63.64835,38.59979a90.97979,90.97979,0,0,1-1.7648-9.04782h-.109a81.86264,81.86264,0,0,1-1.70927,8.98813l-2.70017,10.17H49.48439L41.603,19.79665Z"/><path class="cls-1" d="M106.95821,41.73277a40.25133,40.25133,0,0,0,.44081,6.97733H99.84781l-.49471-2.89681h-.16537a9.428,9.428,0,0,1-7.71737,3.54718,8.55969,8.55969,0,0,1-8.70777-8.86978c0-7.50861,6.28434-11.05656,15.81972-11.05656v-.35452c0-1.53794-.77182-3.725-4.90684-3.725a14.95576,14.95576,0,0,0-7.4396,2.12785L84.6938,21.74725a20.94144,20.94144,0,0,1,10.47-2.59994c8.98466,0,11.7944,5.67377,11.7944,12.47411Zm-8.10148-6.68123c-4.40814,0-7.82614,1.12322-7.82614,4.55364a3.1128,3.1128,0,0,0,3.30794,3.42833A4.67041,4.67041,0,0,0,98.69135,39.722a6.90954,6.90954,0,0,0,.16537-1.53588Z"/><path class="cls-1" d="M111.9994,40.8452a15.53131,15.53131,0,0,0,7.21893,2.12965c2.53638,0,3.58391-.88758,3.58391-2.3653,0-1.47852-.82635-2.24644-3.91309-3.31153-5.62206-2.01106-7.77188-5.2619-7.715-8.63312,0-5.43989,4.2986-9.51758,10.96612-9.51758a16.71914,16.71914,0,0,1,7.55071,1.71313l-1.43407,6.15074a13.52284,13.52284,0,0,0-5.84017-1.59814c-2.04025,0-3.19837.88758-3.19837,2.30666,0,1.3599,1.04805,2.12809,4.35493,3.31,5.126,1.893,7.21946,4.672,7.27527,8.87031,0,5.44018-3.91359,9.40182-11.63019,9.40182a17.99294,17.99294,0,0,1-8.70726-2.06943Z"/><path class="cls-1" d="M158.19562,41.73277a40.14871,40.14871,0,0,0,.44081,6.97733h-7.5507l-.49611-2.89681h-.16434a9.427,9.427,0,0,1-7.715,3.54718,8.55918,8.55918,0,0,1-8.70829-8.86978c0-7.50861,6.28148-11.05656,15.81559-11.05656v-.35452c0-1.53794-.77052-3.725-4.90425-3.725a14.957,14.957,0,0,0-7.44013,2.12785l-1.5431-5.73525a20.94691,20.94691,0,0,1,10.471-2.59994c8.98323,0,11.79453,5.67377,11.79453,12.47411ZM150.094,35.05155c-4.4097,0-7.82614,1.12322-7.82614,4.55364a3.11241,3.11241,0,0,0,3.30637,3.42833,4.66929,4.66929,0,0,0,4.3544-3.31153,6.83372,6.83372,0,0,0,.16537-1.53588Z"/><path class="cls-1" d="M162.46268,7.897h8.37652V23.225h.1106a9.27622,9.27622,0,0,1,8.15741-4.07769c6.44738,0,11.13149,5.73423,11.07775,14.60376,0,10.40566-6.1187,15.6094-12.29114,15.6094a8.74778,8.74778,0,0,1-8.10058-4.67223h-.1106l-.33124,4.02186h-7.10833c.11007-1.89218.21961-5.38073.21961-8.63387Zm8.37652,28.5145a7.04344,7.04344,0,0,0,.16693,1.59711,5.22612,5.22612,0,0,0,4.90428,4.25571c3.58182,0,5.7864-2.955,5.7864-8.15895,0-4.49421-1.87334-8.04218-5.7864-8.04218a5.30354,5.30354,0,0,0-4.90428,4.435,7.97644,7.97644,0,0,0-.16693,1.65656Z"/><path class="cls-1" d="M193.63964,48.7101V19.79665h8.37808V48.7101Z"/><path class="cls-1" d="M9.83065,11.08965c5.09184-.92581,8.7021,3.34254,9.97236,6.77965.6134,1.66042,1.36482,2.27,1.90795,2.07618.55477-.19662.79248-1.20281.43978-2.83635-.68008-3.15185-.031-6.66675,4.28-6.23473,5.93317.593,10.28008,6.20761,11.21081,12.93455.98317,7.10576-1.94491,17.35923-7.76595,25.55151C7.886,48.282.90169,36.46495.13014,28.55223-.73262,19.71267,2.71611,12.38316,9.83065,11.08965Z"/><path class="cls-2" d="M6.20336,32.28547l1.87411-.66717a.94638.94638,0,0,1,.34148-.22969.378.378,0,0,1,.46354.40567c.01487.42271-.18643.66691-.38474.709a.90033.90033,0,0,1-.28938.00569l-2.07115.74261a2.53558,2.53558,0,0,1-.424.15709c-.337.07184-.57078-.04649-.58282-.3912a.58824.58824,0,0,1,.12521-.41859l-.19289-5.5257a.699.699,0,0,1-.08993-.28346.69013.69013,0,0,1,.5735-.73784c.25774-.05477.54.01966.5558.47531a.98907.98907,0,0,1-.08784.34368Z"/><path class="cls-2" d="M10.60557,27.82127a1.03481,1.03481,0,0,1-.08631.38834l.11113,3.17951a.39749.39749,0,0,1,.13965.284c.01318.378-.39742.6333-.7045.69868-.25787.05477-.45309-.10541-.46433-.4279a.72607.72607,0,0,1,.10568-.40308l-.108-3.09113a.40246.40246,0,0,1-.09922-.27c-.01085-.31108-.0027-.64881.60205-.77748a.45937.45937,0,0,1,.50349.40824ZM10.087,25.26588c.28745-.06109.45269.09419.46394.41679.023.65569-.25142,1.09494-.55866,1.16031-.31717.06745-.45386-.12764-.4647-.43874-.0199-.56718.18267-1.05824.54948-1.13627Z"/><path class="cls-2" d="M12.35307,28.22278l-.50243.19638a.33308.33308,0,0,1-.17572.11576c-.13875.02945-.34056-.02842-.35606-.47312-.007-.20024.11293-.48317.27158-.517a.82634.82634,0,0,1,.20969.00053l.5222-.20077c-.069-1.979.174-3.02744,1.304-3.26761.54535-.11589,1.26846.29042,1.28177.66833a.61487.61487,0,0,1-.39768.62206.30021.30021,0,0,1-.38927-.27557.4805.4805,0,0,0-.5041-.13926c-.30738.06535-.431.52829-.37868,2.02927l1.09351-.43409c.06861-.037.12454-.14963.22363-.17056.24782-.05271.404.12687.41253.37133.01125.32272-.08927.59041-.2974.6346a.35974.35974,0,0,1-.21006-.01138l-1.19183.47751.10761,3.07978a.63966.63966,0,0,1,.1.29224c.01021.28888-.20334.4687-.51058.53408-.38654.08218-.55025-.02868-.56109-.33979a.63761.63761,0,0,1,.05207-.224Z"/><path class="cls-2" d="M17.29132,25.80671a1.1404,1.1404,0,0,1,1.49492,1.0598c.01757.50024-.27377,1.02167-2.55768,1.96608l-.45282.1863a2.3686,2.3686,0,0,0-.04847.61473c.01939.556.28489.72374.71109.633A2.28235,2.28235,0,0,0,17.84969,29.216a.55995.55995,0,0,1,.47867-.5943c.36678-.078.45528.17185.463.39432a3.26824,3.26824,0,0,1-2.43184,2.141c-.84249.179-1.50087-.08425-1.5413-1.24054-.072-2.0679,1.17453-3.83387,2.46325-4.10777Zm-.01008.8536a2.209,2.209,0,0,0-1.35461,1.531c1.74258-.71755,1.98458-.93692,1.979-1.09274a.45379.45379,0,0,0-.6146-.44031Z"/><path class="cls-2" d="M22.51546,26.30864a.534.534,0,0,1-.04329.231l.48423,1.90306.01461-.0031.65167-1.90592a.67644.67644,0,0,1-.08425-.31084c-.00619-.17971.13515-.3328.37506-.38382.20374-.04329.34019.08382.35672.55721l.562,1.61494.01461-.00309a4.48021,4.48021,0,0,1,.31058-.97026,2.46326,2.46326,0,0,0,.18514-.993.48465.48465,0,0,1-.05826-.2013c-.00712-.204.22091-.39223.44637-.44015a.25458.25458,0,0,1,.316.23694.41974.41974,0,0,1-.0708.27814,3.67348,3.67348,0,0,1-.30619,1.30643,9.05377,9.05377,0,0,0-.4846,1.65656c.05051.18656-.00362.31317-.30918.37829-.24.05091-.34648-.05813-.36006-.23618L23.934,27.26493l-.6659,1.91726c-.01072.32249-.14558.45012-.36381.49638-.23279.04961-.32466-.06252-.35037-.37776l-.66561-2.48055a.27786.27786,0,0,1-.08864-.22792.4572.4572,0,0,1,.33476-.49029c.22557-.048.37363-.00556.38072.19858Z"/><path class="cls-2" d="M27.31625,25.46925a.76073.76073,0,0,1-.06345.28475l.08152,2.33339a.29161.29161,0,0,1,.10258.20853c.00968.2775-.29158.46483-.517.51291-.18913.04-.33254-.07753-.34082-.3142a.5317.5317,0,0,1,.07766-.29587l-.07932-2.2684a.29546.29546,0,0,1-.07274-.19831c-.008-.22843-.00206-.47635.44171-.57067a.33717.33717,0,0,1,.36964.29973Zm-.38075-1.87554c.21112-.04482.3323.06911.34056.30568.0168.48138-.1845.80373-.41007.85165-.23281.04948-.33307-.09353-.34109-.3222-.01445-.41615.13425-.77634.40348-.83357Z"/><path class="cls-2" d="M28.60923,24.2326c-.03061-.03477-.04625-.06422-.05078-.19485-.00762-.22027.17932-.32569.44817-.39107.15272-.03241.32868-.02895.33616.1832a.40523.40523,0,0,1-.05877.20982l.01783.50606.90372-.35672a.22089.22089,0,0,1,.13579-.09457c.18191-.03863.275.10608.2806.26925.00918.2611-.08811.41329-.23371.4443-.05091.01085-.10205.01355-.125-.01461l-.93952.38062.077,2.203c.00452.1305.04432.22067.13166.20233a2.91007,2.91007,0,0,0,.98447-.98214.34854.34854,0,0,1,.2651-.385c.29081-.06189.37659.08425.38461.31291a3.85646,3.85646,0,0,1-1.8413,1.8382c-.35643.0757-.57776-.17339-.59144-.56485L28.65149,25.44l-.47.1823a.27422.27422,0,0,1-.143.10438c-.17495.02895-.29574-.07686-.30439-.32182a.38642.38642,0,0,1,.27907-.40451.15893.15893,0,0,1,.125.01461l.49159-.19509Z"/><path class="cls-2" d="M33.45924,24.96073c-.00971-.27737-.049-.35127-.17249-.32492a1.89924,1.89924,0,0,0-1.02207.95708l.05247,1.50125a.36189.36189,0,0,1,.06615.21628c.00709.20387-.243.38861-.47571.43822-.21834.04625-.30142-.02659-.30748-.19792a.53247.53247,0,0,1,.04159-.2801L31.49417,23.044c-.00995-.07184-.07131-.14949-.07377-.22287a.50977.50977,0,0,1,.44367-.51355.33781.33781,0,0,1,.36212.29314.80932.80932,0,0,1-.057.25851L32.2364,24.785l.01471-.00312a2.66985,2.66985,0,0,1,1.335-1.01548c.38551-.082.51831.15286.53744.69961l.07869,2.25213c.009.04754.06213.10182.06432.16717a.54367.54367,0,0,1-.41652.45039c-.22557.04781-.382-.02585-.388-.19715a.48079.48079,0,0,1,.06332-.28476Z"/><path class="cls-2" d="M15.18619,40.00673a2.69459,2.69459,0,0,1-2.14775,2.593c-.87993.1868-1.58586-.02093-1.59311-.44237a.63388.63388,0,0,1,.457-.66122.31246.31246,0,0,1,.39752.23022,1.1951,1.1951,0,0,0,.77777.05168,1.52457,1.52457,0,0,0,1.1315-1.66119c-.00918-.5403-.00788-1.09351-.0172-1.6338a3.33443,3.33443,0,0,1-2.10137,2.1927c-.81651.17339-1.17556-.29251-1.18717-.97309a4.70337,4.70337,0,0,1,3.55274-4.45312c.424-.09017.64947.02479.65632.42454Zm-2.98339-.23334a3.33531,3.33531,0,0,0,1.675-2.24308,5.0759,5.0759,0,0,0,.26356-1.38964l-.00013-.01085A3.43344,3.43344,0,0,0,11.87633,39.344c.00519.30256.12507.47232.3159.43176Z"/><path class="cls-2" d="M16.15918,35.51665l-.08967-.263c-.00349-.20517.269-.44753.60825-.51963.31809-.06768.522.03024.52572.24626a.37159.37159,0,0,1-.05945.262l.00648.37829.01058-.00233A3.84423,3.84423,0,0,1,18.841,34.29576c.32868-.06977.66291.18474.68,1.17852a.58349.58349,0,0,1-.52167.60981c-.30748.06535-.48952-.00439-.49264-.18813a.90935.90935,0,0,1,.04821-.29224c-.00233-.1297-.04652-.22866-.1314-.21059a3.91733,3.91733,0,0,0-1.25488,1.286l.03374,1.97746a.39736.39736,0,0,1,.1323.27544c.00556.32428-.172.52429-.74456.646-.33913.0721-.50064-.03435-.50542-.31547a.44072.44072,0,0,1,.13322-.29923Z"/><path class="cls-2" d="M22.73483,33.40327c1.198-.25478,1.5634.57856,1.57065,1,.00826.486-.31293.99894-2.76518,1.96481l-.48616.19019a2.136,2.136,0,0,0-.06435.59893c.00931.54056.28862.69792.74456.601a2.55049,2.55049,0,0,0,1.525-1.05062.58464.58464,0,0,1,.522-.58835c.39236-.08321.48151.15812.48526.3744A3.54865,3.54865,0,0,1,21.632,38.62587c-.90128.19146-1.597-.05091-1.61613-1.17463a4.08187,4.08187,0,0,1,2.70834-4.04591Zm-.02828.83021a2.36441,2.36441,0,0,0-1.47465,1.517c1.87088-.73382,2.13328-.95216,2.13071-1.10359-.00439-.25941-.18966-.51265-.64561-.41575Z"/><path class="cls-2" d="M27.64866,32.35887c1.198-.25478,1.56327.57853,1.57062.99971.00815.4863-.313.99921-2.76515,1.96505l-.48616.19019a2.13617,2.13617,0,0,0-.06435.599c.00918.54054.28862.69792.74443.601a2.5505,2.5505,0,0,0,1.525-1.05064.58479.58479,0,0,1,.52209-.58835c.39223-.08319.48151.15814.48513.37442a3.54886,3.54886,0,0,1-2.63444,2.13222c-.90126.19149-1.597-.05115-1.61624-1.17463a4.08174,4.08174,0,0,1,2.70847-4.04588Zm-.02842.83021a2.36442,2.36442,0,0,0-1.47452,1.517c1.87088-.73385,2.13314-.95219,2.13058-1.10359-.00439-.25943-.18966-.51265-.64561-.41575Z"/><path class="cls-2" d="M31.25646,35.81019a.33733.33733,0,0,1,.07853.2434c.00479.28113-.36432.468-.65061.52868-.26512.05633-.53191.00489-.5363-.25451a.43784.43784,0,0,1,.122-.32971l-.02879-1.68548a.339.339,0,0,1-.165-.32275,1.98361,1.98361,0,0,1,.14846-.66045l-.01487-.86432a.52628.52628,0,0,1-.09031-.30618c-.00362-.21628.32106-.51291.64973-.58266.40282-.08581.52207.04082.52606.26769a.77009.77009,0,0,1-.10026.3576l.00712.42144c1.06572-1.14854,1.53911-1.46611,1.92089-1.54723a.665.665,0,0,1,.80746.54443l.05982,3.52212a.5866.5866,0,0,1,.06848.26742c.00569.33513-.2044.499-.59663.58216-.36045.07676-.54326-.03617-.54779-.2956a.58318.58318,0,0,1,.0907-.301l-.05157-3.02551c-.0013-.07546-.17312-.16926-.24726-.15349-.10608.02249-.496.24649-1.48847,1.325Z"/><path class="cls-1" d="M45.19845,12.77384l-1.33381,2.47177H41.60734l5.52337-9.62971H49.974l.41988,9.62971h-2.3431l-.08062-2.47177ZM48.078,11.14522l-.05273-2.0431c-.00386-.57158.0199-1.30023.02638-1.85757h-.04292c-.28163.57155-.63433,1.30021-.92658,1.85757l-1.133,2.0431Z"/><path class="cls-1" d="M64.9411,5.61589l-1.48161,5.52932c-.44806,1.67151-.031,2.5144,1.06922,2.5144,1.14285,0,1.986-.8,2.44542-2.5144l1.48161-5.52932h2.17151L69.18,11.01652c-.79637,2.972-2.67514,4.3862-5.1898,4.3862-2.42888,0-3.47974-1.35733-2.6604-4.41488l1.43952-5.37194Z"/><path class="cls-1" d="M71.61224,12.77384l-1.33381,2.47177H68.02111l5.52337-9.62971h2.84334l.41988,9.62971H74.4646L74.384,12.77384Zm2.87951-1.62862L74.439,9.10211c-.00389-.57158.0199-1.30023.02635-1.85757H74.4225c-.28166.57155-.63436,1.30021-.9266,1.85757l-1.133,2.0431Z"/><path class="cls-1" d="M93.00261,5.61589l-.99556,3.71464h3.58621l.99558-3.71464h2.17151l-2.58031,9.62971H94.00854l1.07567-4.01487H91.498l-1.07567,4.01487H88.25082L90.8311,5.61589Z"/><path class="cls-1" d="M101.54853,15.40272c-2.84294,0-3.95092-2.1573-3.21607-4.90039a6.49912,6.49912,0,0,1,6.03771-5.04353c2.95754,0,3.9787,2.21467,3.26658,4.87194a6.33244,6.33244,0,0,1-6.07375,5.072Zm.57724-1.7289c1.4718,0,2.68625-1.38575,3.19165-3.27174.463-1.72864.047-3.21464-1.4532-3.21464s-2.73377,1.45732-3.21594,3.25753c-.48627,1.81468.00622,3.22885,1.46354,3.22885Z"/><path class="cls-1" d="M109.76278,5.74457a18.88682,18.88682,0,0,1,2.99733-.20024,3.67392,3.67392,0,0,1,2.73224.786,2.17753,2.17753,0,0,1,.43512,2.2144,4.07353,4.07353,0,0,1-1.49815,2.28626,5.663,5.663,0,0,1-3.40041,1.01418,3.503,3.503,0,0,1-.72763-.0571l-.9266,3.45751h-2.15757Zm.98653,4.37173a3.02841,3.02841,0,0,0,.71316.0571,2.19468,2.19468,0,0,0,2.28883-1.55707c.23721-.88575-.23565-1.41443-1.33534-1.41443a4.162,4.162,0,0,0-.90491.07133Z"/><path class="cls-1" d="M54.53568,15.40272c-2.84307,0-3.95105-2.1573-3.2162-4.90039a6.499,6.499,0,0,1,6.03758-5.04353c2.95754,0,3.9787,2.21467,3.26658,4.87194a6.332,6.332,0,0,1-6.07375,5.072Zm.57726-1.7289c1.4718,0,2.68622-1.38575,3.19138-3.27174.4633-1.72864.047-3.21464-1.4532-3.21464-1.5,0-2.73353,1.45732-3.21594,3.25753-.48629,1.81468.00619,3.22885,1.46351,3.22885Z"/><path class="cls-1" d="M53.09386,10.96873c3.40586-1.74906,4.38438,1.17929,5.11923,2.26634a8.2073,8.2073,0,0,0,1.8961,1.99815,4.29714,4.29714,0,0,1-3.38054-1.58446c-1.07155-1.45888-2.02786-1.85138-3.35882-1.02064Z"/><path class="cls-1" d="M81.88174,12.93275a4.38162,4.38162,0,0,0,2.248.62118c1.00021,0,1.64362-.4292,1.818-1.08009.16664-.62116-.19561-.97619-1.24184-1.39014-1.44155-.59171-2.25316-1.50873-1.8648-2.9583A4.38946,4.38946,0,0,1,87.285,5.13762a4.62892,4.62892,0,0,1,2.32267.50283L88.63813,7.445a3.60883,3.60883,0,0,0-1.87332-.47365,1.57921,1.57921,0,0,0-1.65786.96148c-.17026.63616.283.91729,1.40954,1.40541,1.5258.65061,2.06583,1.56766,1.68934,2.973-.44777,1.67127-2.057,3.09139-4.70012,3.09139a5.08227,5.08227,0,0,1-2.56247-.62119Z"/></g></g></svg>